<svg id="LINE" height="512" viewBox="0 0 36 36" width="512" xmlns="http://www.w3.org/2000/svg"><path d="m13.307 35.499c6.298-2.859 12.105-1.559 15.14-2.936 3.035-1.378 8.617-6.016 2.28-19.978s-15.842-12.12-19.181-10.605c-15.632 7.095-9.394 38.582 1.761 33.519z" fill="#efefef"/><path d="m32 7.077c-.827 0-1.5-.673-1.5-1.5s.673-1.5 1.5-1.5 1.5.673 1.5 1.5-.673 1.5-1.5 1.5zm0-2c-.276 0-.5.224-.5.5s.224.5.5.5.5-.224.5-.5-.224-.5-.5-.5z" fill="#a4afc1"/><circle cx="11.5" cy="25.5" fill="#2fdf84" r="3.75"/><circle cx="24.5" cy="25.5" fill="#2fdf84" r="3.75"/><path d="m20.751 24.75-10.808-12.542c-.826-.965-1.134-2.27-.826-3.502l.488-1.956 13.395 15.25z" fill="#f3f3f1"/><circle cx="11.5" cy="25.5" fill="#2fdf84" r="3.75"/><circle cx="24.5" cy="25.5" fill="#2fdf84" r="3.75"/><path d="m12.5 29.11c-.32.09-.65.14-1 .14-2.07 0-3.75-1.68-3.75-3.75s1.68-3.75 3.75-3.75c.35 0 .68.05 1 .14-1.58.43-2.75 1.89-2.75 3.61s1.17 3.18 2.75 3.61z" fill="#00b871"/><path d="m25.5 29.11c-.32.09-.65.14-1 .14-2.07 0-3.75-1.68-3.75-3.75s1.68-3.75 3.75-3.75c.35 0 .68.05 1 .14-1.58.43-2.75 1.89-2.75 3.61s1.17 3.18 2.75 3.61z" fill="#00b871"/><path d="m21.72 23.56-.97 1.19-10.81-12.54c-.82-.97-1.13-2.27-.82-3.5l.49-1.96 1.56 1.77-.05.19c-.31 1.23 0 2.53.82 3.5z" fill="#d5dbe1"/><path d="m11.5 30c-2.481 0-4.5-2.019-4.5-4.5s2.019-4.5 4.5-4.5 4.5 2.019 4.5 4.5-2.019 4.5-4.5 4.5zm0-7.5c-1.654 0-3 1.346-3 3s1.346 3 3 3 3-1.346 3-3-1.346-3-3-3z"/><path d="m24.5 30c-2.481 0-4.5-2.019-4.5-4.5s2.019-4.5 4.5-4.5 4.5 2.019 4.5 4.5-2.019 4.5-4.5 4.5zm0-7.5c-1.654 0-3 1.346-3 3s1.346 3 3 3 3-1.346 3-3-1.346-3-3-3z"/><path d="m20.589 19.807-1.146-.968 6.072-7.191c.642-.767.883-1.81.645-2.788l-.655-2.659 1.457-.359.655 2.661c.352 1.44-.004 2.976-.953 4.11z"/><path d="m12.625 22.5c-.181 0-.363-.065-.507-.197-.305-.28-.326-.754-.046-1.06l2.75-3c.28-.305.754-.326 1.06-.046.305.28.326.754.046 1.06l-2.75 3c-.148.161-.35.243-.553.243z"/><path d="m15.5 25.25c-.169 0-.339-.057-.479-.174-.318-.265-.361-.738-.096-1.056l2.5-3c.265-.319.739-.361 1.056-.096.318.265.361.738.096 1.056l-2.5 3c-.149.178-.363.27-.577.27z"/><path d="m20.751 25.5c-.211 0-.42-.088-.569-.26l-10.807-12.542c-.984-1.149-1.352-2.709-.985-4.174l.488-1.956c.067-.271.28-.481.551-.547.272-.066.557.025.74.234l13.395 15.25c.273.312.243.785-.068 1.059-.312.274-.785.242-1.059-.068l-12.451-14.176-.141.568c-.249.995.001 2.054.668 2.833l10.806 12.54c.27.314.235.788-.079 1.058-.141.121-.316.181-.489.181z"/><path d="m24 8.318h1.5v4.863h-1.5z" transform="matrix(.669 -.743 .743 .669 .203 21.955)"/><path d="m22.25 10.568h1.5v4.863h-1.5z" transform="matrix(.669 -.743 .743 .669 -2.049 21.399)"/><path d="m20.25 13.068h1.5v4.863h-1.5z" transform="matrix(.669 -.743 .743 .669 -4.569 20.74)"/></svg>