<svg height="512" viewBox="0 0 61 61" width="512" xmlns="http://www.w3.org/2000/svg"><g id="Page-1" fill="none" fill-rule="evenodd"><g id="038---Hairdryer" fill-rule="nonzero"><g id="Icons_copy" transform="translate(1 2)"><path id="Shape" d="m46 7v15l-3 .2-14.53 1c-1.8077135.133438-3.5330093.8096145-4.95 1.94-1.0702338.8336932-2.2559619 1.5074023-3.52 2-2.0875325.7886451-4.3310166 1.0763591-6.55.84-1.1836268-.1463404-2.3432898-.4454998-3.45-.89-6.32545189-2.3991949-10.0304165-8.9783056-8.80250987-15.6311037 1.22790664-6.65279815 7.03736456-11.47583226 13.80250987-11.4588963 3.4882871-.00062623 6.8511592 1.3010157 9.43 3.65 1.3747817 1.31099827 3.1647931 2.09987685 5.06 2.23l13.51.92z" fill="#9d27b0"/><path id="Shape" d="m46 7v15l-3 .2v-15.4z" fill="#6a1b9a"/><path id="Shape" d="m59 4.13v20.74c.0016927.6832971-.3455746 1.3201713-.9208771 1.688851-.5753026.3686798-1.2990134.4181368-1.9191229.131149l-10.16-4.69v-15l10.16-4.69c.6201095-.28698775 1.3438203-.23753083 1.9191229.13114896.5753025.36867978.9225698 1.00555395.9208771 1.68885104z" fill="#607d8b"/><path id="Shape" d="m56.16 2.31-.8.37c.4039184.37456962.6354589.89915352.64 1.45v20.74c-.0045411.5508465-.2360816 1.0754304-.64 1.45l.8.37c.6201095.2869878 1.3438203.2375308 1.9191229-.131149.5753025-.3686797.9225698-1.0055539.9208771-1.688851v-20.74c.0016927-.68329709-.3455746-1.32017126-.9208771-1.68885104-.5753026-.36867979-1.2990134-.41813671-1.9191229-.13114896z" fill="#37474f"/><path id="Shape" d="m22 45.55c.0485836 2.1912552-1.1015402 4.2346417-3 5.33-1.2015148.7419807-2.5878846 1.1301642-4 1.12-1.4114678.0053516-2.7965395-.3824685-4-1.12-1.82094538-1.0507921-2.95907057-2.9780174-3-5.08 0-.08 0-.17 0-.25.26-6.15 3.67-12.31 2-18.46 1.1094898.4239814 2.2690736.7029537 3.45.83 2.2189834.2363591 4.4624675-.0513549 6.55-.84-.3411756 1.2775756-.4927947 2.5983462-.45 3.92.1152948 2.3666577.4874804 4.7137737 1.11 7 .6785435 2.4699575 1.1271217 4.9973946 1.34 7.55z" fill="#6a1b9a"/><path id="Shape" d="m19 50.88v4.12c0 1.6568542-1.3431458 3-3 3h-2c-1.6568542 0-3-1.3431458-3-3v-4.12c1.2034605.7375315 2.5885322 1.1253516 4 1.12 1.4121154.0101642 2.7984852-.3780193 4-1.12z" fill="#7f8e94"/><path id="Shape" d="m25 33v3c0 1.1045695-.8954305 2-2 2h-2.34c-.6225196-2.2862263-.9947052-4.6333423-1.11-7h3.45c1.1045695 0 2 .8954305 2 2z" fill="#7f8e94"/><path id="Shape" d="m47.21 49.16c-6.21 6.25-12.58 10.05-14.14 8.49l-7.78-7.78c-.3877236-.3900375-.3877236-1.0199625 0-1.41l21.22-21.22c.3900375-.3877236 1.0199625-.3877236 1.41 0l7.78 7.76c1.56 1.58-2.24 7.92-8.49 14.16z" fill="#ffdc00"/><path id="Shape" d="m55.7 35-7.78-7.78c-.3900375-.3877236-1.0199625-.3877236-1.41 0l-.79.79 7 7c1.56 1.56-2.24 7.9-8.49 14.14-4.23 4.21-8.46 7.3-11.23 8.4l.1.1c1.56 1.56 7.89-2.24 14.14-8.49s10.02-12.58 8.46-14.16z" fill="#fec108"/></g><g id="Layer_2"><g fill="#000"><path id="Shape" d="m59.62 3.6c-.8627064-.55455868-1.9489221-.62999033-2.88-.2l-9.93 4.6-16.26-1.11c-1.6690111-.13579404-3.2403925-.8420329-4.45-2-4.4039751-4.02733743-10.7763843-5.060944-16.22755168-2.63211345-5.45116735 2.42883056-8.94400655 7.85801255-8.89463097 13.82559205.04937557 5.9675795 3.63157222 11.3382228 9.12218265 13.6765214.79 3.41 0 6.85-.87 10.47-.64657636 2.3807157-1.05854096 4.8190103-1.23 7.28v.11c-.0049626.0598974-.0049626.1201026 0 .18.03187966 2.2456433 1.15003548 4.3365946 3 5.61v3.59c0 2.209139 1.790861 4 4 4h2c2.209139 0 4-1.790861 4-4v-3.59c.3803645-.2740604.7351449-.581983 1.06-.92 1.30682-1.3282328 2.0054688-3.1382037 1.93-5-.1521456-2.1921256-.5103938-4.365052-1.07-6.49h1.08c1.6568542 0 3-1.3431458 3-3v-3c0-1.6568542-1.3431458-3-3-3h-2.45c.042811-.7412109.1498795-1.4773069.32-2.2 1.1630849-.4920406 2.2586049-1.1305339 3.26-1.9 1.2616389-1.0086529 2.7990579-1.6117674 4.41-1.73l17.27-1.17 9.93 4.59c.3961706.1793043.8251754.2746387 1.26.28.5748347-.0014897 1.1371392-.1680985 1.62-.48.8584804-.5507865 1.3783008-1.5000237 1.38-2.52v-20.74c.0017067-1.02352708-.518531-1.97729603-1.38-2.53zm-40.62 53.4c0 1.1045695-.8954305 2-2 2h-2c-1.1045695 0-2-.8954305-2-2v-2.53c.9611533.3513335 1.9766475.5307374 3 .53 1.0241385-.0003564 2.0400187-.1832148 3-.54zm6-22v3c0 .5522847-.4477153 1-1 1h-1.55c-.4140283-1.6417946-.6982386-3.31362-.85-5h2.4c.5522847 0 1 .4477153 1 1zm-5.45-2c.1403854 2.607238.559439 5.1919604 1.25 7.71.6196158 2.2529623 1.02146 4.5602175 1.2 6.89.0443637 1.3084302-.4510033 2.5775823-1.37 3.51-1.2224855 1.2328336-2.8939941 1.9151557-4.63 1.89-3.31 0-6-2.33-6-5.27.003718-.0465926.003718-.0934074 0-.14.1776533-2.3193012.5761244-4.61637 1.19-6.86.79-3.32 1.59-6.74 1.11-10.2.6562451.1764189 1.3247815.3034408 2 .38 1.7878177.1963121 3.5963408.0710024 5.34-.37-.089902.8167116-.1199821 1.6389024-.09 2.46zm9.86-8.81c-2.005782.1409038-3.9225025.8831974-5.5 2.13-5.4587541 4.1908974-13.2379085 3.4014074-17.74338246-1.8007385-4.5054739-5.2021458-4.17604501-13.0143168.75139052-17.8186894 4.92743554-4.80437257 12.74543864-4.9361511 17.83199194-.3005721 1.5485459 1.46167529 3.5557439 2.34159129 5.68 2.49l15.57 1.04v13.14zm29.59 2.68c.0008464.3416485-.1727873.6600856-.4604386.8444255-.2876512.1843399-.6495066.2090684-.9595614.0655745l-1.58-.73v-13.05c0-.5522847-.4477153-1-1-1s-1 .4477153-1 1v12.13l-6-2.77v-13.72l6-2.77v3.13c0 .5522847.4477153 1 1 1s1-.4477153 1-1v-4l1.58-.73c.3021127-.14026431.6542322-.12089801.9391403.05165198.2849082.17255.4652008.4756305.4808597.80834802z"/><path id="Shape" d="m14 9h4c.5522847 0 1-.44771525 1-1s-.4477153-1-1-1h-4c-.5522847 0-1 .44771525-1 1s.4477153 1 1 1z"/><path id="Shape" d="m10 13h12c.5522847 0 1-.4477153 1-1s-.4477153-1-1-1h-12c-.55228475 0-1 .4477153-1 1s.44771525 1 1 1z"/><path id="Shape" d="m18 23h-4c-.5522847 0-1 .4477153-1 1s.4477153 1 1 1h4c.5522847 0 1-.4477153 1-1s-.4477153-1-1-1z"/><path id="Shape" d="m22 19h-12c-.55228475 0-1 .4477153-1 1s.44771525 1 1 1h12c.5522847 0 1-.4477153 1-1s-.4477153-1-1-1z"/><path id="Shape" d="m26 15h-20c-.55228475 0-1 .4477153-1 1s.44771525 1 1 1h20c.5522847 0 1-.4477153 1-1s-.4477153-1-1-1z"/></g><path id="Shape" d="m14 46.24c.0857437-.3572656-.0256247-.7331364-.2921539-.9860254-.2665292-.2528891-.6477271-.3443765-1-.24-.352273.1043765-.6221024.3887598-.7078461.7460254-.337369 1.317515-.1012152 2.7162719.65 3.85.8303735.9720584 2.0753674 1.488638 3.35 1.39.5522847 0 1-.4477153 1-1s-.4477153-1-1-1c-.6423469.0697701-1.2818289-.1544162-1.74-.61-.3590511-.6568459-.4521256-1.4265002-.26-2.15z" fill="#f5f5f5"/><path id="Shape" d="m35.08 61c1.733782-.1864249 3.3920547-.8091372 4.82-1.81 3.2757314-2.0799305 6.2963453-4.5366965 9-7.32 2.7833035-2.7036547 5.2400695-5.7242686 7.32-9 1.92-3.19 2.31-5.39 1.17-6.54l-7.78-7.77c-.3757331-.3621703-.8781448-.563135-1.4-.56-.5295768.0022328-1.0366497.2144122-1.41.59l-7.8 7.72-8.46 8.49-4.94 5c-.3755541.3751365-.5865733.8841815-.5865733 1.415s.2110192 1.0398635.5865733 1.415l7.77 7.78c.469012.4159817 1.0842611.6282606 1.71.59zm-6.67-11.25 5.66 5.66c.1887188.1871865.444197.2915368.71.29.265803.0015368.5212812-.1028135.71-.29.1893127-.1877666.2957983-.4433625.2957983-.71s-.1064856-.5222334-.2957983-.71l-5.66-5.65 1.41-1.42 5.66 5.66c.3921222.3893607 1.0256393.3871222 1.415-.005s.3871222-1.0256393-.005-1.415l-5.65-5.65 1.41-1.42 5.66 5.66c.2443899.2853762.6281184.4096819.993419.3218101.3653005-.0878718.6505193-.3730906.7383911-.7383911.0878718-.3653006-.0364339-.7490291-.3218101-.993419l-5.65-5.66 1.41-1.42 5.66 5.66c.3900375.3877236 1.0199625.3877236 1.41 0 .3877236-.3900375.3877236-1.0199625 0-1.41l-5.66-5.66 1.42-1.41 5.65 5.65c.1870714.1908556.4427541.2988906.71.3.4062651.0023626.77358-.2413038.929371-.6165185.1557909-.3752147.0690889-.807391-.219371-1.0934815l-5.66-5.68 1.42-1.41 5.65 5.65c.3893608.3921221 1.0228778.3943607 1.415.005.3921221-.3893608.3943607-1.0228778.005-1.415l-5.63-5.64 1.41-1.41 5.59 5.66c.1887188.1871865.444197.2915368.71.29.265803.0015368.5212812-.1028135.71-.29.1893127-.1877666.2957983-.4433625.2957983-.71s-.1064856-.5222334-.2957983-.71l-5.62-5.66 1.41-1.36 7.79 7.73c.12.12.25 1.24-1.46 4.09-1.9927798 3.1399897-4.3416886 6.0392142-7 8.64-2.6007858 2.6583114-5.5000103 5.0072202-8.64 7-2.85 1.71-4 1.58-4.09 1.46l-7.81-7.76z" fill="#000"/></g></g></g></svg>